<svg width="121" height="32" viewBox="0 0 121 32" fill="none" xmlns="http://www.w3.org/2000/svg">
<path d="M45.1932 0.556011L48.8292 2.62801L48.5544 4.86915L44.9395 2.77601L45.1932 0.556011ZM59.2935 0.936583C59.97 0.936583 60.4632 1.04934 60.7733 1.27487C61.0974 1.50039 61.2595 1.85982 61.2595 2.35315C61.2595 2.5223 61.2525 2.6562 61.2384 2.75487L60.9635 4.95373H58.9553L59.2301 2.79715H51.6197L51.366 4.93258H49.3789L49.6537 2.73373C49.7241 2.09944 49.9003 1.64134 50.1822 1.35944C50.4781 1.07753 50.9362 0.936583 51.5563 0.936583H59.2935ZM49.4 6.20116L54.2622 4.23487L54.1142 6.09544L49.2309 8.10401L49.4 6.20116ZM60.7733 8.12516L55.7843 6.0743L55.9534 4.27715L60.9847 6.26458L60.7733 8.12516ZM44.1784 4.8903L47.7511 7.02573L47.4974 9.24573L43.8825 7.1103L44.1784 4.8903ZM55.9111 6.75087L55.6786 8.84401H60.8367L60.6253 10.7257H56.1014C56.7356 11.9802 57.4543 13.0867 58.2576 14.0452C59.0891 15.06 60.0686 16.0326 61.1961 16.9629L59.3146 17.8086C57.7362 16.3991 56.3832 14.6513 55.2558 12.5652L54.5793 18.5486H52.6556L53.2898 12.8189C51.81 14.8768 50.1822 16.4977 48.4064 17.6817L46.5884 16.7726C49.0829 15.1375 51.1335 13.1219 52.7401 10.7257H48.7447L48.9561 8.84401H53.7337L53.9662 6.75087H55.9111ZM47.8568 10.8314C46.7998 13.8478 45.8414 16.3004 44.9818 18.1892H42.7832C44.0798 15.1869 45.0663 12.7343 45.7428 10.8314H47.8568Z" fill="white"/>
<path d="M68.9544 13.8972C67.9115 14.2636 66.8123 14.609 65.6566 14.9332C64.7405 15.201 63.6835 15.4899 62.4856 15.8L62.7604 13.7914C63.8597 13.5095 64.5785 13.3193 64.9167 13.2206L65.6566 6.58173H63.4369L63.6483 4.70001H65.868L66.3542 0.217725H68.3202L67.8129 4.70001H69.8212L69.6098 6.58173H67.6015L66.925 12.6286C67.6297 12.4313 68.3766 12.1916 69.1658 11.9097L68.9544 13.8972ZM81.1945 0.365725L79.017 18.4429H77.051L79.2284 0.365725H81.1945ZM72.7596 5.84173C72.3932 9.09773 71.9915 11.6278 71.5547 13.432C71.0614 15.4335 70.4131 17.1602 69.6098 18.612L67.6015 18.0412C68.4612 16.5189 69.1306 14.7993 69.6098 12.8823C69.8353 11.9802 70.0326 10.9794 70.2017 9.88001C70.3849 8.78058 70.5681 7.43449 70.7513 5.84173L71.3433 0.429154H73.3938L72.7596 5.84173ZM77.0933 1.61315L75.2753 16.6246H73.3727L75.1907 1.61315H77.0933Z" fill="white"/>
<path d="M84.8094 18.2737C83.9497 18.1751 83.1323 17.9213 82.3572 17.5126L82.5897 15.5674C83.1252 15.8212 83.689 16.0044 84.2809 16.1172C84.3232 16.1313 84.3866 16.1383 84.4711 16.1383C84.5557 16.1383 84.6121 16.1172 84.6403 16.0749C84.6825 16.0185 84.7178 15.9269 84.746 15.8L85.2956 11.212L82.7588 11.9732L83.0336 9.79544C83.8088 9.6122 84.6473 9.37963 85.5493 9.09773L85.9721 5.41887H83.5833L83.7947 3.47373H86.2046L86.6063 0.154297H88.6146L88.2129 3.47373H90.1578L89.9253 5.41887H88.0015L87.6421 8.40001C87.8676 8.32954 88.2059 8.20973 88.6569 8.04058L89.6504 7.66001L89.4179 9.81658L88.4243 10.1549C87.9733 10.324 87.6351 10.4438 87.4096 10.5143L86.6908 16.7092C86.6345 17.2166 86.4653 17.6042 86.1835 17.872C85.9016 18.1539 85.5493 18.2949 85.1265 18.2949C84.9856 18.2949 84.8799 18.2878 84.8094 18.2737ZM100.115 2.75487C99.6355 2.92401 98.5574 3.20592 96.8803 3.60058C95.7528 3.86839 94.421 4.12915 92.8848 4.38287L92.8003 5.22858C92.7862 5.28496 92.7791 5.35544 92.7791 5.44001C92.7791 5.56687 92.8144 5.65849 92.8848 5.71487C92.9553 5.77125 93.0821 5.79944 93.2654 5.79944H96.7746C97.4088 5.79944 98.0641 5.72896 98.7406 5.58801C99.4171 5.43296 100.037 5.21449 100.601 4.93258L100.326 7.02573C99.861 7.23715 99.2902 7.39925 98.6138 7.51201C97.9373 7.61068 97.2397 7.66001 96.5209 7.66001H92.3775C91.2359 7.66001 90.6651 7.16668 90.6651 6.18001C90.6651 6.01087 90.6722 5.87696 90.6863 5.7783L91.3205 0.238868H93.3711L93.0962 2.54344C93.4627 2.47296 93.963 2.3743 94.5972 2.24744C95.2314 2.10649 95.7317 1.99373 96.0981 1.90915L96.838 1.74001C98.3742 1.40173 99.5369 1.10573 100.326 0.852011L100.115 2.75487ZM98.9309 18.168H89.2699L90.1367 10.4086C90.2071 9.95754 90.3762 9.6122 90.644 9.37258C90.9118 9.11887 91.2712 8.99201 91.7221 8.99201H98.2544C98.7476 8.99201 99.1282 9.12592 99.3959 9.39373C99.6778 9.64744 99.8187 10.021 99.8187 10.5143C99.8187 10.6834 99.8117 10.8103 99.7976 10.8949L98.9309 18.168ZM97.7893 10.7892H92.1238L91.8913 12.7132H97.5568L97.7893 10.7892ZM91.701 14.4046L91.4896 16.3497H97.1551L97.3665 14.4046H91.701Z" fill="white"/>
<path d="M119.542 4.80573C119.134 7.65296 118.246 10.3593 116.879 12.9246C117.71 14.6301 118.831 16.3568 120.24 18.1046L118.105 18.612C117.33 17.4985 116.555 16.2229 115.779 14.7852C114.807 16.2511 113.75 17.5126 112.608 18.5697L110.642 17.8086C112.291 16.3427 113.687 14.6513 114.828 12.7343C114.222 11.353 113.722 9.99982 113.327 8.67487L112.778 9.94344H110.812C111.671 7.94192 112.334 6.29982 112.799 5.01715C113.574 2.8183 114.102 1.24668 114.384 0.302296H116.435C116.237 0.950677 115.949 1.81753 115.568 2.90287H121.001L120.768 4.80573H119.542ZM109.268 0.40801L108.845 3.74858H112.207L111.974 5.46115H108.867C109.416 5.77125 110.184 6.28573 111.171 7.00458L111.721 7.38516L110.579 8.67487C109.79 7.92782 109.078 7.30763 108.444 6.8143L108.19 8.84401H106.245L106.478 7.04687C105.463 8.06173 104.336 8.92154 103.095 9.6263L101.89 8.33658C103.525 7.46268 104.935 6.5042 106.118 5.46115H102.926L103.138 3.74858H106.901L107.323 0.40801H109.268ZM106.499 3.15658H104.533L103.582 0.788582H105.442L106.499 3.15658ZM110.642 0.852011H112.545L111.361 3.15658H109.459L110.642 0.852011ZM114.448 5.94744C114.899 7.80801 115.378 9.37963 115.885 10.6623C116.688 8.8863 117.28 6.93411 117.661 4.80573H114.892L114.448 5.94744ZM105.78 9.39373H107.852L107.345 10.472H109.776C110.325 10.472 110.748 10.5848 111.044 10.8103C111.34 11.0217 111.488 11.3177 111.488 11.6983C111.488 12.0084 111.382 12.3678 111.171 12.7766C110.593 13.8196 109.811 14.7288 108.824 15.504C109.726 15.9973 110.459 16.4132 111.023 16.7514L109.585 18.0834C109.134 17.7874 108.747 17.5478 108.423 17.3646L107.197 16.6457C105.83 17.421 104.357 18.0482 102.778 18.5274L101.616 17.0686C103.011 16.6457 104.251 16.1665 105.336 15.6309L104.554 15.208C104.272 15.0953 104.047 14.9895 103.878 14.8909C103.413 14.6794 103.18 14.4116 103.18 14.0874C103.18 13.8478 103.293 13.5871 103.518 13.3052C103.871 12.8259 104.117 12.4735 104.258 12.248H102.461L102.651 10.472H105.273L105.78 9.39373ZM106.351 12.248C106.027 12.7977 105.682 13.3193 105.315 13.8126L106.118 14.172L107.027 14.5949C107.774 14.0452 108.402 13.432 108.909 12.7554C109.022 12.6004 109.078 12.4876 109.078 12.4172C109.078 12.3044 108.902 12.248 108.55 12.248H106.351Z" fill="white"/>
<path d="M44.7633 31.7718C44.0148 31.7718 43.3978 31.7346 42.9121 31.6603L43.0321 30.7003C43.7291 30.7861 44.3433 30.8289 44.8747 30.8289H44.9861C45.3461 30.8289 45.6289 30.7946 45.8346 30.7261C46.046 30.6575 46.1974 30.5575 46.2888 30.4261C46.3802 30.2946 46.4373 30.1261 46.4602 29.9203C46.4716 29.8175 46.4773 29.7461 46.4773 29.7061C46.4773 29.5061 46.4316 29.3546 46.3402 29.2518C46.2488 29.1489 46.1117 29.0775 45.9288 29.0375C45.7517 28.9918 45.4832 28.9461 45.1232 28.9003C44.7119 28.8546 44.3862 28.7832 44.1462 28.686C43.9063 28.5889 43.7263 28.4489 43.6063 28.266C43.492 28.0775 43.4349 27.826 43.4349 27.5118C43.4349 27.386 43.4435 27.246 43.4606 27.0918C43.5349 26.446 43.752 25.986 44.1119 25.7118C44.4719 25.4375 45.0232 25.3003 45.766 25.3003H46.3659C46.8001 25.3003 47.2801 25.306 47.8057 25.3175L47.6943 26.2603C47.3915 26.2603 47.1601 26.2575 47.0001 26.2518L46.2545 26.2432H45.6546C45.2375 26.2432 44.9318 26.3175 44.7376 26.466C44.549 26.6089 44.4548 26.8832 44.4548 27.2889C44.4548 27.466 44.489 27.6003 44.5576 27.6918C44.6262 27.7775 44.7204 27.8375 44.8404 27.8718C44.9604 27.906 45.1547 27.9432 45.4232 27.9832C45.4746 27.9889 45.5775 28.0032 45.7317 28.026C46.1545 28.0889 46.4916 28.1718 46.743 28.2746C46.9944 28.3775 47.1829 28.526 47.3086 28.7203C47.4343 28.9089 47.4972 29.1661 47.4972 29.4918C47.4972 29.6118 47.4886 29.7403 47.4715 29.8775C47.4143 30.3518 47.2886 30.7261 47.0944 31.0003C46.9058 31.2746 46.6316 31.4718 46.2716 31.5918C45.9117 31.7118 45.446 31.7718 44.8747 31.7718H44.7633Z" fill="white"/>
<path d="M49.9567 25.1289H50.9423L50.7195 26.9632H51.885C53.0677 26.9632 53.6591 27.506 53.6591 28.5918C53.6591 28.7232 53.6505 28.8661 53.6333 29.0203L53.2991 31.7375H52.3135L52.6478 28.9946C52.6592 28.8803 52.6649 28.8003 52.6649 28.7546C52.6649 28.1718 52.3678 27.8803 51.7736 27.8803H50.6081L50.1367 31.7375H49.1511L49.9567 25.1289Z" fill="white"/>
<path d="M57.9904 26.9289C58.5789 26.9289 59.0217 27.0689 59.3188 27.3489C59.6216 27.6232 59.7731 28.0318 59.7731 28.5746C59.7731 28.7003 59.7645 28.8375 59.7473 28.9861L59.6531 29.7575H56.4564V29.7661C56.4449 29.8918 56.4392 29.9775 56.4392 30.0232C56.4392 30.3146 56.5221 30.5318 56.6878 30.6746C56.8592 30.8118 57.1448 30.8803 57.5448 30.8803H57.9647C58.2618 30.8803 58.7132 30.8546 59.3188 30.8032L59.2246 31.6946C58.7218 31.7461 58.2704 31.7718 57.8705 31.7718H57.4505C56.7592 31.7718 56.2507 31.6318 55.925 31.3518C55.6051 31.0718 55.4451 30.6603 55.4451 30.1175C55.4451 29.9861 55.4537 29.8518 55.4708 29.7146L55.5565 28.9946C55.6365 28.3089 55.8622 27.7946 56.2335 27.4518C56.6049 27.1032 57.1334 26.9289 57.819 26.9289H57.9904ZM58.7703 28.926V28.9175C58.7818 28.7918 58.7875 28.7003 58.7875 28.6432C58.7875 28.3689 58.7132 28.1603 58.5647 28.0175C58.4218 27.8746 58.1933 27.8032 57.879 27.8032H57.7076C57.0334 27.8032 56.6506 28.1775 56.5592 28.926H58.7703Z" fill="white"/>
<path d="M62.7247 27.8803L62.2619 31.7375H61.2763L61.8591 26.9632H64.0102C65.1929 26.9632 65.7843 27.506 65.7843 28.5918C65.7843 28.7232 65.7757 28.8661 65.7586 29.0203L65.4243 31.7375H64.4387L64.773 28.9946C64.7844 28.8803 64.7901 28.8003 64.7901 28.7546C64.7901 28.1718 64.493 27.8803 63.8988 27.8803H62.7247Z" fill="white"/>
<path d="M67.8103 26.9632H71.4098L71.3241 27.7175L68.633 30.8546H71.1012L70.9813 31.7375H67.2789L67.3646 30.9832L70.03 27.846H67.6903L67.8103 26.9632Z" fill="white"/>
<path d="M73.6129 25.1289H74.5985L74.3757 26.9632H75.5412C76.7239 26.9632 77.3153 27.506 77.3153 28.5918C77.3153 28.7232 77.3067 28.8661 77.2896 29.0203L76.9553 31.7375H75.9697L76.304 28.9946C76.3154 28.8803 76.3211 28.8003 76.3211 28.7546C76.3211 28.1718 76.024 27.8803 75.4298 27.8803H74.2643L73.7929 31.7375H72.8073L73.6129 25.1289Z" fill="white"/>
<path d="M81.6467 26.9289C82.2351 26.9289 82.6779 27.0689 82.975 27.3489C83.2779 27.6232 83.4293 28.0318 83.4293 28.5746C83.4293 28.7003 83.4207 28.8375 83.4036 28.9861L83.3093 29.7575H80.1126V29.7661C80.1012 29.8918 80.0954 29.9775 80.0954 30.0232C80.0954 30.3146 80.1783 30.5318 80.344 30.6746C80.5154 30.8118 80.8011 30.8803 81.201 30.8803H81.6209C81.918 30.8803 82.3694 30.8546 82.975 30.8032L82.8808 31.6946C82.378 31.7461 81.9266 31.7718 81.5267 31.7718H81.1067C80.4154 31.7718 79.9069 31.6318 79.5812 31.3518C79.2613 31.0718 79.1013 30.6603 79.1013 30.1175C79.1013 29.9861 79.1099 29.8518 79.127 29.7146L79.2127 28.9946C79.2927 28.3089 79.5184 27.7946 79.8898 27.4518C80.2611 27.1032 80.7896 26.9289 81.4753 26.9289H81.6467ZM82.4265 28.926V28.9175C82.438 28.7918 82.4437 28.7003 82.4437 28.6432C82.4437 28.3689 82.3694 28.1603 82.2209 28.0175C82.078 27.8746 81.8495 27.8032 81.5352 27.8032H81.3638C80.6896 27.8032 80.3068 28.1775 80.2154 28.926H82.4265Z" fill="white"/>
<path d="M86.3809 27.8803L85.9181 31.7375H84.9325L85.5153 26.9632H87.6664C88.8491 26.9632 89.4405 27.506 89.4405 28.5918C89.4405 28.7232 89.4319 28.8661 89.4148 29.0203L89.0805 31.7375H88.095L88.4292 28.9946C88.4406 28.8803 88.4463 28.8003 88.4463 28.7546C88.4463 28.1718 88.1492 27.8803 87.555 27.8803H86.3809Z" fill="white"/>
<path d="M94.9522 25.3003H95.9635L95.175 31.7375H94.1638L94.9522 25.3003Z" fill="white"/>
<path d="M98.8399 27.8803L98.3771 31.7375H97.3915L97.9743 26.9632H100.125C101.308 26.9632 101.899 27.506 101.899 28.5918C101.899 28.7232 101.891 28.8661 101.874 29.0203L101.54 31.7375H100.554L100.888 28.9946C100.9 28.8803 100.905 28.8003 100.905 28.7546C100.905 28.1718 100.608 27.8803 100.014 27.8803H98.8399Z" fill="white"/>
<path d="M103.788 29.0289C103.954 27.6518 104.691 26.9632 105.999 26.9632H107.122L107.345 25.1289H108.331L107.525 31.7375H105.46C104.277 31.7375 103.686 31.1946 103.686 30.1089C103.686 29.9775 103.694 29.8346 103.711 29.6803L103.788 29.0289ZM106.651 30.8203L107.011 27.8632H105.888C105.242 27.8632 104.874 28.2432 104.782 29.0032L104.697 29.7061C104.685 29.8203 104.68 29.9032 104.68 29.9546C104.68 30.5318 104.977 30.8203 105.571 30.8203H106.651Z" fill="white"/>
<path d="M112.264 26.9289C112.853 26.9289 113.295 27.0689 113.593 27.3489C113.895 27.6232 114.047 28.0318 114.047 28.5746C114.047 28.7003 114.038 28.8375 114.021 28.9861L113.927 29.7575H110.73V29.7661C110.719 29.8918 110.713 29.9775 110.713 30.0232C110.713 30.3146 110.796 30.5318 110.962 30.6746C111.133 30.8118 111.419 30.8803 111.819 30.8803H112.238C112.536 30.8803 112.987 30.8546 113.593 30.8032L113.498 31.6946C112.996 31.7461 112.544 31.7718 112.144 31.7718H111.724C111.033 31.7718 110.524 31.6318 110.199 31.3518C109.879 31.0718 109.719 30.6603 109.719 30.1175C109.719 29.9861 109.727 29.8518 109.745 29.7146L109.83 28.9946C109.91 28.3089 110.136 27.7946 110.507 27.4518C110.879 27.1032 111.407 26.9289 112.093 26.9289H112.264ZM113.044 28.926V28.9175C113.055 28.7918 113.061 28.7003 113.061 28.6432C113.061 28.3689 112.987 28.1603 112.838 28.0175C112.696 27.8746 112.467 27.8032 112.153 27.8032H111.981C111.307 27.8032 110.924 28.1775 110.833 28.926H113.044Z" fill="white"/>
<path d="M116.287 31.7289H115.07L117.127 29.3032L115.687 26.9632H116.87L117.847 28.6175L119.184 26.9632H120.367L118.37 29.3718L119.861 31.7289H118.678L117.658 30.0403L116.287 31.7289Z" fill="white"/>
<path fill-rule="evenodd" clip-rule="evenodd" d="M23.4529 0C22.0658 0 20.8791 0.996278 20.6389 2.36242L20.1392 5.20512C20.0568 5.60294 19.659 7.28515 18.656 8.2146C17.7913 9.0159 16.6404 9.15668 16.1313 9.17773H10.3142C8.92715 9.17773 7.74044 10.174 7.50026 11.5402L6.74389 15.8424C6.51327 17.1542 7.5225 18.3563 8.85437 18.3563H17.8293L18.7802 12.9473C18.9176 12.3658 19.3308 10.9384 20.2252 10.1096C20.9145 9.47081 21.7858 9.2518 22.3687 9.17857H32.8544C34.2415 9.17857 35.4282 8.18229 35.6684 6.81615L36.4248 2.5139C36.6554 1.20215 35.6462 0 34.3143 0H23.4529Z" fill="#0063AB"/>
<path fill-rule="evenodd" clip-rule="evenodd" d="M27.6034 13.6426H18.6285L17.6479 19.2202C17.4873 19.8469 17.0718 21.1367 16.2302 21.9047C15.5417 22.533 14.6717 22.7489 14.0888 22.8213H3.60331C2.21622 22.8213 1.02951 23.8176 0.789325 25.1837L0.0329506 29.486C-0.197667 30.7977 0.811571 31.9999 2.14344 31.9999H13.0048C14.3919 31.9999 15.5786 31.0036 15.8188 29.6374L16.377 26.4621C16.5327 25.8458 16.9479 24.5303 17.8014 23.7515C18.5408 23.0768 19.4895 22.8777 20.0672 22.8212H26.1435C27.5306 22.8212 28.7173 21.8249 28.9575 20.4587L29.7139 16.1565C29.9445 14.8447 28.9353 13.6426 27.6034 13.6426Z" fill="#009757"/>
</svg>
