<svg width="160" height="130" viewBox="0 0 160 130" fill="none" xmlns="http://www.w3.org/2000/svg">
<path opacity="0.4" d="M0.5 0.5H159.5V129.5H0.5V0.5Z" stroke="white"/>
<path d="M53.32 91.52L57.1 93.22L56.84 95.3L53.1 93.58L53.32 91.52ZM68.12 92.24L67.88 93.98H58.62L58.86 92.24H68.12ZM51.84 98.32L52.06 96.52H54.86C55.2467 96.52 55.5467 96.6333 55.76 96.86C55.9733 97.0867 56.08 97.4067 56.08 97.82C56.08 97.9667 56.0733 98.08 56.06 98.16L55.34 103.92C55.3133 104.027 55.3 104.1 55.3 104.14C55.7667 104.833 56.3133 105.367 56.94 105.74C57.8067 106.287 58.8733 106.533 60.14 106.48H68.72L68.14 108.36H59.42C58.3133 108.36 57.3133 108.12 56.42 107.64C55.78 107.307 55.1933 106.827 54.66 106.2C54.2333 107.093 53.7067 107.88 53.08 108.56L51.06 108.04C51.7133 107.387 52.24 106.707 52.64 106C53.0533 105.293 53.3133 104.52 53.42 103.68L54.04 98.32H51.84ZM66.02 99.7L67.98 105H66.02L65.7 104.12C64.22 104.347 62.02 104.587 59.1 104.84C58.82 104.867 58.5467 104.827 58.28 104.72C58.0133 104.613 57.8067 104.46 57.66 104.26C57.5133 104.073 57.44 103.867 57.44 103.64C57.44 103.347 57.5667 103.033 57.82 102.7C58.66 101.607 59.5267 100.153 60.42 98.34H57.36L57.6 96.6H68.52L68.28 98.34H62.5C61.74 99.82 60.86 101.367 59.86 102.98C61.6733 102.833 63.42 102.633 65.1 102.38L64.16 99.7H66.02ZM78.48 91.28C77.5867 92.4667 76.7533 93.5533 75.98 94.54C75.5533 95.1 74.9133 95.8733 74.06 96.86L73.78 97.18H71.22C72.0067 96.3133 72.9 95.2667 73.9 94.04C74.5533 93.2267 75.26 92.3067 76.02 91.28H78.48ZM88.54 92.14L88.34 93.98H79.36L79.56 92.14H88.54ZM78.68 95.48C77.9067 96.56 77.2067 97.5133 76.58 98.34L75.38 108.3H73.42L74.32 101.12L73.46 102.1H71C72.32 100.62 73.3467 99.4133 74.08 98.48C74.8267 97.5467 75.58 96.5467 76.34 95.48H78.68ZM88.46 98.98H85.74L84.82 106.92C84.7 107.947 84.1933 108.46 83.3 108.46C83.02 108.46 82.72 108.42 82.4 108.34C82.08 108.273 81.6267 108.16 81.04 108C80.52 107.853 79.9533 107.66 79.34 107.42L79.56 105.54C80.4 105.833 81.4067 106.12 82.58 106.4C82.6067 106.413 82.6467 106.42 82.7 106.42C82.82 106.42 82.8933 106.327 82.92 106.14L83.72 98.98H78.34L78.54 97.12H88.68L88.46 98.98ZM103.6 101.22C104.147 102.46 104.807 103.593 105.58 104.62C106.353 105.633 107.28 106.633 108.36 107.62L106.56 108.58C104.573 106.567 103.113 104.493 102.18 102.36C101.633 103.573 100.96 104.7 100.16 105.74C99.36 106.78 98.5 107.653 97.58 108.36L95.62 107.54C96.8333 106.58 97.8533 105.593 98.68 104.58C99.5067 103.553 100.16 102.433 100.64 101.22H97.7L97.9 99.38H101.2C101.307 99.0333 101.393 98.5333 101.46 97.88L101.72 95.6H98.92L99.12 93.8H101.92L102.24 91.16H104.22L103.9 93.8H106.18C106.753 93.8 107.173 93.9467 107.44 94.24C107.707 94.52 107.84 94.9067 107.84 95.4C107.84 95.5067 107.827 95.6667 107.8 95.88L107.34 99.38H108.72L108.5 101.22H103.6ZM96.84 91.2L94.8 108.44H92.94L94.94 91.2H96.84ZM92.84 100.62H91.2L92.3 94.96H93.88L92.84 100.62ZM98.22 95.02L98.62 98.72H97.06L96.74 95.02H98.22ZM103.34 98.42C103.3 98.74 103.24 99.06 103.16 99.38H105.4L105.9 95.6H103.68L103.34 98.42Z" fill="white"/>
<rect x="71" y="39" width="18" height="18" rx="2" stroke="white" stroke-width="3"/>
<path d="M90 26V31" stroke="white" stroke-width="3" stroke-linecap="round"/>
<path d="M80 26V31" stroke="white" stroke-width="3" stroke-linecap="round"/>
<path d="M91 65V70" stroke="white" stroke-width="3" stroke-linecap="round"/>
<path d="M97 38L102 38" stroke="white" stroke-width="3" stroke-linecap="round"/>
<path d="M97 48L102 48" stroke="white" stroke-width="3" stroke-linecap="round"/>
<path d="M58 38L63 38" stroke="white" stroke-width="3" stroke-linecap="round"/>
<path d="M58 48L63 48" stroke="white" stroke-width="3" stroke-linecap="round"/>
<path d="M70 26V31" stroke="white" stroke-width="3" stroke-linecap="round"/>
<path d="M69 65V70" stroke="white" stroke-width="3" stroke-linecap="round"/>
<path d="M80 65V70" stroke="white" stroke-width="3" stroke-linecap="round"/>
<path d="M97 58L102 58" stroke="white" stroke-width="3" stroke-linecap="round"/>
<path d="M58 58L63 58" stroke="white" stroke-width="3" stroke-linecap="round"/>
<rect x="63" y="31" width="34" height="34" rx="8" stroke="white" stroke-width="3"/>
</svg>
