<svg width="48" height="48" viewBox="0 0 48 48" fill="none" xmlns="http://www.w3.org/2000/svg">
<path d="M45 17.4229C45.6498 19.4997 46 21.709 46 24C46 36.1503 36.1503 46 24 46C11.8497 46 2 36.1503 2 24C2 11.8497 11.8497 2 24 2C25.7199 2 27.3937 2.19736 29 2.57067" stroke="#0063AB" stroke-width="3" stroke-linecap="round"/>
<path d="M32 24C32 28.4183 28.4183 32 24 32C19.5817 32 16 28.4183 16 24C16 19.5817 19.5817 16 24 16" stroke="#0063AB" stroke-width="3" stroke-linecap="round"/>
<path d="M23.9393 21.9393C23.3536 22.5251 23.3536 23.4749 23.9393 24.0607C24.5251 24.6464 25.4749 24.6464 26.0607 24.0607L23.9393 21.9393ZM30.9393 14.9393L23.9393 21.9393L26.0607 24.0607L33.0607 17.0607L30.9393 14.9393ZM33.0607 17.0607L35.0607 15.0607L32.9393 12.9393L30.9393 14.9393L33.0607 17.0607Z" fill="#0063AB"/>
<path d="M39.4844 3L39.7986 8.34258L45.1412 8.65685L39.1701 14.628L33.8275 14.3137L33.5133 8.97112L39.4844 3Z" stroke="#0063AB" stroke-width="3" stroke-linejoin="round"/>
</svg>
