<svg width="160" height="130" viewBox="0 0 160 130" fill="none" xmlns="http://www.w3.org/2000/svg">
<path opacity="0.4" d="M0.5 0.5H159.5V129.5H0.5V0.5Z" stroke="white"/>
<circle cx="78" cy="44" r="8" stroke="white" stroke-width="3"/>
<circle cx="78" cy="44" r="2" fill="white"/>
<path d="M61 43.5C60.1716 43.5 59.5 44.1716 59.5 45C59.5 45.8284 60.1716 46.5 61 46.5L61 43.5ZM95 46.5C95.8284 46.5 96.5 45.8284 96.5 45C96.5 44.1716 95.8284 43.5 95 43.5L95 46.5ZM61 46.5L70 46.5L70 43.5L61 43.5L61 46.5ZM86 46.5L95 46.5L95 43.5L86 43.5L86 46.5Z" fill="white"/>
<path d="M79.5 28C79.5 27.1716 78.8284 26.5 78 26.5C77.1716 26.5 76.5 27.1716 76.5 28L79.5 28ZM79.5 35.5L79.5 28L76.5 28L76.5 35.5L79.5 35.5Z" fill="white"/>
<path d="M95.2645 42.1613L93.7825 42.3927C93.7999 42.5043 93.8299 42.6135 93.8718 42.7184L95.2645 42.1613ZM68 60.0461H69.5C69.5 59.545 69.2498 59.077 68.833 58.7987L68 60.0461ZM86 63V61.5C85.1716 61.5 84.5 62.1716 84.5 63H86ZM94 54V52.5C93.1716 52.5 92.5 53.1716 92.5 54H94ZM98.9029 51.2572L97.5102 51.8143L97.5102 51.8143L98.9029 51.2572ZM96.7465 41.9298C95.2951 32.6346 87.3549 25.5 77.7419 25.5V28.5C85.8221 28.5 92.5505 34.5033 93.7825 42.3927L96.7465 41.9298ZM77.7419 25.5C67.0946 25.5 58.5 34.2509 58.5 45H61.5C61.5 35.8668 68.7921 28.5 77.7419 28.5V25.5ZM58.5 45C58.5 51.8069 61.9437 57.8055 67.167 61.2936L68.833 58.7987C64.4182 55.8505 61.5 50.7749 61.5 45H58.5ZM66.5 60.0461V65H69.5V60.0461H66.5ZM66.5 65C66.5 68.0376 68.9624 70.5 72 70.5V67.5C70.6193 67.5 69.5 66.3807 69.5 65H66.5ZM72 70.5H82V67.5H72V70.5ZM82 70.5C85.0376 70.5 87.5 68.0376 87.5 65H84.5C84.5 66.3807 83.3807 67.5 82 67.5V70.5ZM87.5 65V63H84.5V65H87.5ZM86 64.5H90V61.5H86V64.5ZM90 64.5C93.0376 64.5 95.5 62.0376 95.5 59H92.5C92.5 60.3807 91.3807 61.5 90 61.5V64.5ZM95.5 59V54H92.5V59H95.5ZM97.0459 52.5H94V55.5H97.0459V52.5ZM97.5102 51.8143C97.6415 52.1427 97.3997 52.5 97.0459 52.5V55.5C99.5221 55.5 101.215 52.9992 100.296 50.7001L97.5102 51.8143ZM93.8718 42.7184L97.5102 51.8143L100.296 50.7001L96.6572 41.6042L93.8718 42.7184Z" fill="white"/>
<path d="M67.76 95.62C67.2533 98.1933 66.3467 100.667 65.04 103.04C65.96 104.747 67.16 106.38 68.64 107.94L66.6 108.6C65.76 107.573 64.9 106.267 64.02 104.68C62.9933 106.2 61.88 107.493 60.68 108.56L58.6 107.94C60.44 106.34 61.9267 104.633 63.06 102.82C62.5133 101.66 62.0667 100.56 61.72 99.52L61.26 100.66H59.26L59.94 98.92H58.38L56.98 95.7H58.76L60.1 98.5C61.0733 95.94 61.92 93.5067 62.64 91.2H64.62L63.78 93.82H69.14L68.92 95.62H67.76ZM60.66 93.4L60.46 95.12H52.24L52.44 93.4H55.68L55.3 91.26H57.24L57.66 93.4H60.66ZM62.68 96.98C63.0667 98.42 63.5267 99.7733 64.06 101.04C64.9 99.3333 65.5333 97.5267 65.96 95.62H63.16L62.68 96.98ZM55.92 95.64L54.02 98.94H51.84L53.92 95.64H55.92ZM54.58 99.42C55.22 100.353 55.76 101.153 56.2 101.82C56.6133 101.113 56.9933 100.3 57.34 99.38H59.18C58.66 100.807 58.0067 102.153 57.22 103.42C58.0333 104.74 58.7133 105.887 59.26 106.86L57.6 107.54C57.0533 106.513 56.5733 105.647 56.16 104.94C55.1467 106.247 53.9 107.447 52.42 108.54L50.74 107.6C52.6067 106.267 54.0933 104.847 55.2 103.34C54.7333 102.593 53.8933 101.287 52.68 99.42H54.58ZM82.6 101.26C80.9067 101.473 79.2333 101.62 77.58 101.7C77.22 101.74 76.9333 101.68 76.72 101.52C76.5067 101.36 76.4 101.167 76.4 100.94C76.4 100.78 76.4467 100.627 76.54 100.48C76.6467 100.32 76.7933 100.173 76.98 100.04C77.5533 99.6667 78.3533 99.06 79.38 98.22C78.58 98.3 78 98.34 77.64 98.34C77.4133 98.34 77.22 98.3 77.06 98.22C76.9 98.1267 76.7867 98.0067 76.72 97.86C76.6667 97.7267 76.64 97.62 76.64 97.54C76.64 97.2467 76.7933 96.9667 77.1 96.7C77.9267 95.98 78.7333 95.2267 79.52 94.44H73.02L73.22 92.78H79.96L79.36 91.16H81.42L82.02 92.78H88.58L88.38 94.44H81.64C81.16 94.92 80.7133 95.3467 80.3 95.72L79.1 96.82C79.2333 96.8067 79.5067 96.7867 79.92 96.76C80.3333 96.7333 80.76 96.68 81.2 96.6C81.6933 96.1733 82.2 95.66 82.72 95.06L84.28 95.72C83.52 96.48 82.6933 97.24 81.8 98C80.8933 98.7733 79.9933 99.4867 79.1 100.14C79.98 100.087 80.9667 99.9867 82.06 99.84L81.64 98.7H83.26L84.52 101.9H82.86L82.6 101.26ZM84.52 96.06L87.7 94.9L87.5 96.66L84.32 97.8L84.52 96.06ZM73.46 94.94L76.48 96.06L76.22 97.74L73.24 96.64L73.46 94.94ZM84.36 98.1L87.84 100.14L87.6 101.98L84.14 99.8L84.36 98.1ZM72.24 100.2C73.48 99.6533 74.8 98.96 76.2 98.12L75.98 100.18C74.38 101.047 73.06 101.713 72.02 102.18L72.24 100.2ZM88.38 103.14L88.16 104.9H80.78L80.32 108.64H78.36L78.8 104.9H71.5L71.7 103.14H79.02L79.16 101.98H81.16L81 103.14H88.38ZM108.92 92.62L108.74 94.18H92.7L92.9 92.62H99.76L99.32 91.16H101.36L101.88 92.62H108.92ZM106.18 99.12H94.36L94.66 96.32C94.7 95.88 94.8533 95.5533 95.12 95.34C95.3867 95.1133 95.7533 95.0133 96.22 95.04H105.06C106.113 95.04 106.58 95.56 106.46 96.6L106.18 99.12ZM96.32 97.68H104.46L104.58 96.48H96.48L96.32 97.68ZM105.96 100.04C106.547 100.04 106.98 100.147 107.26 100.36C107.54 100.573 107.68 100.933 107.68 101.44C107.68 101.6 107.673 101.72 107.66 101.8L107.06 106.84C106.993 107.427 106.82 107.86 106.54 108.14C106.273 108.42 105.873 108.56 105.34 108.56C104.807 108.56 104.327 108.533 103.9 108.48C103.473 108.427 102.92 108.347 102.24 108.24L102.42 106.62C103.287 106.793 104.067 106.907 104.76 106.96H104.86C104.967 106.96 105.047 106.933 105.1 106.88C105.153 106.827 105.193 106.713 105.22 106.54L105.76 101.56H94.48L93.68 108.48H91.76L92.56 101.58C92.6267 100.993 92.8 100.593 93.08 100.38C93.36 100.153 93.7867 100.04 94.36 100.04H105.96ZM103.32 106.28H95.7L96.04 103.46C96.1333 102.687 96.6 102.32 97.44 102.36H102.32C102.747 102.36 103.073 102.46 103.3 102.66C103.54 102.847 103.66 103.12 103.66 103.48C103.66 103.6 103.653 103.693 103.64 103.76L103.32 106.28ZM97.44 104.94H101.84L101.98 103.68H97.62L97.44 104.94Z" fill="white"/>
</svg>
