<svg width="184" height="38" viewBox="0 0 184 38" fill="none" xmlns="http://www.w3.org/2000/svg">
<path d="M181.511 11.7613C180.892 16.0706 179.548 20.1666 177.479 24.0493C178.738 26.6306 180.434 29.244 182.567 31.8893L179.335 32.6573C178.162 30.972 176.988 29.0413 175.815 26.8653C174.343 29.084 172.743 30.9933 171.015 32.5933L168.039 31.4413C170.535 29.2226 172.647 26.6626 174.375 23.7613C173.458 21.6706 172.7 19.6226 172.103 17.6173L171.271 19.5373H168.295C169.596 16.508 170.599 14.0226 171.303 12.0813C172.476 8.75331 173.276 6.37465 173.703 4.94531H176.807C176.508 5.92665 176.071 7.23865 175.495 8.88131H183.719L183.367 11.7613H181.511ZM165.959 5.10531L165.319 10.1613H170.407L170.055 12.7533H165.351C166.183 13.2226 167.346 14.0013 168.839 15.0893L169.671 15.6653L167.943 17.6173C166.748 16.4866 165.671 15.548 164.711 14.8013L164.327 17.8733H161.383L161.735 15.1533C160.199 16.6893 158.492 17.9906 156.615 19.0573L154.791 17.1053C157.266 15.7826 159.399 14.332 161.191 12.7533H156.359L156.679 10.1613H162.375L163.015 5.10531H165.959ZM161.767 9.26531H158.791L157.351 5.68131H160.167L161.767 9.26531ZM168.039 5.77731H170.919L169.127 9.26531H166.247L168.039 5.77731ZM173.799 13.4893C174.482 16.3053 175.207 18.684 175.975 20.6253C177.191 17.9373 178.087 14.9826 178.663 11.7613H174.471L173.799 13.4893ZM160.679 18.7053H163.815L163.047 20.3373H166.727C167.559 20.3373 168.199 20.508 168.647 20.8493C169.095 21.1693 169.319 21.6173 169.319 22.1933C169.319 22.6626 169.159 23.2066 168.839 23.8253C167.964 25.404 166.78 26.78 165.287 27.9533C166.652 28.7 167.762 29.3293 168.615 29.8413L166.439 31.8573C165.756 31.4093 165.17 31.0466 164.679 30.7693L162.823 29.6813C160.754 30.8546 158.524 31.804 156.135 32.5293L154.375 30.3213C156.487 29.6813 158.364 28.956 160.007 28.1453L158.823 27.5053C158.396 27.3346 158.055 27.1746 157.799 27.0253C157.095 26.7053 156.743 26.3 156.743 25.8093C156.743 25.4466 156.914 25.052 157.255 24.6253C157.788 23.9 158.162 23.3666 158.375 23.0253H155.655L155.943 20.3373H159.911L160.679 18.7053ZM161.543 23.0253C161.052 23.8573 160.53 24.6466 159.975 25.3933L161.191 25.9373L162.567 26.5773C163.698 25.7453 164.647 24.8173 165.415 23.7933C165.586 23.5586 165.671 23.388 165.671 23.2813C165.671 23.1106 165.404 23.0253 164.871 23.0253H161.543Z" fill="white"/>
<path d="M126.696 32.1447C125.395 31.9954 124.158 31.6114 122.984 30.9927L123.336 28.0487C124.147 28.4327 125 28.71 125.896 28.8807C125.96 28.902 126.056 28.9127 126.184 28.9127C126.312 28.9127 126.398 28.8807 126.44 28.8167C126.504 28.7314 126.558 28.5927 126.6 28.4007L127.432 21.4567L123.592 22.6087L124.008 19.3127C125.182 19.0354 126.451 18.6834 127.816 18.2567L128.456 12.6887H124.84L125.16 9.7447H128.808L129.416 4.7207H132.456L131.848 9.7447H134.792L134.44 12.6887H131.528L130.984 17.2007C131.326 17.094 131.838 16.9127 132.52 16.6567L134.024 16.0807L133.672 19.3447L132.168 19.8567C131.486 20.1127 130.974 20.294 130.632 20.4007L129.544 29.7767C129.459 30.5447 129.203 31.1314 128.776 31.5367C128.35 31.9634 127.816 32.1767 127.176 32.1767C126.963 32.1767 126.803 32.166 126.696 32.1447ZM149.864 8.6567C149.139 8.9127 147.507 9.33937 144.968 9.9367C143.262 10.342 141.246 10.7367 138.92 11.1207L138.792 12.4007C138.771 12.486 138.76 12.5927 138.76 12.7207C138.76 12.9127 138.814 13.0514 138.92 13.1367C139.027 13.222 139.219 13.2647 139.496 13.2647H144.808C145.768 13.2647 146.76 13.158 147.784 12.9447C148.808 12.71 149.747 12.3794 150.6 11.9527L150.184 15.1207C149.48 15.4407 148.616 15.686 147.592 15.8567C146.568 16.006 145.512 16.0807 144.424 16.0807H138.152C136.424 16.0807 135.56 15.334 135.56 13.8407C135.56 13.5847 135.571 13.382 135.592 13.2327L136.552 4.8487H139.656L139.24 8.3367C139.795 8.23004 140.552 8.0807 141.512 7.8887C142.472 7.67537 143.23 7.5047 143.784 7.3767L144.904 7.1207C147.23 6.6087 148.99 6.1607 150.184 5.7767L149.864 8.6567ZM148.072 31.9847H133.448L134.76 20.2407C134.867 19.558 135.123 19.0354 135.528 18.6727C135.934 18.2887 136.478 18.0967 137.16 18.0967H147.048C147.795 18.0967 148.371 18.2994 148.776 18.7047C149.203 19.0887 149.416 19.654 149.416 20.4007C149.416 20.6567 149.406 20.8487 149.384 20.9767L148.072 31.9847ZM146.344 20.8167H137.768L137.416 23.7287H145.992L146.344 20.8167ZM137.128 26.2887L136.808 29.2327H145.384L145.704 26.2887H137.128Z" fill="white"/>
<path d="M100.456 25.5204C98.8774 26.0751 97.2134 26.5977 95.4641 27.0884C94.0774 27.4937 92.4774 27.9311 90.6641 28.4004L91.0801 25.3604C92.7441 24.9337 93.8321 24.6457 94.3441 24.4964L95.4641 14.4484H92.1041L92.4241 11.6004H95.7841L96.5201 4.81641H99.4961L98.7281 11.6004H101.768L101.448 14.4484H98.4081L97.3841 23.6004C98.4507 23.3017 99.5814 22.9391 100.776 22.5124L100.456 25.5204ZM118.984 5.04041L115.688 32.4004H112.712L116.008 5.04041H118.984ZM106.216 13.3284C105.661 18.2564 105.053 22.0857 104.392 24.8164C103.645 27.8457 102.664 30.4591 101.448 32.6564L98.4081 31.7924C99.7094 29.4884 100.723 26.8857 101.448 23.9844C101.789 22.6191 102.088 21.1044 102.344 19.4404C102.621 17.7764 102.899 15.7391 103.176 13.3284L104.072 5.13641H107.176L106.216 13.3284ZM112.776 6.92841L110.024 29.6484H107.144L109.896 6.92841H112.776Z" fill="white"/>
<path d="M62.2476 5.32812L67.7516 8.46412L67.3356 11.8561L61.8636 8.68813L62.2476 5.32812ZM83.5916 5.90413C84.6156 5.90413 85.3623 6.07479 85.8316 6.41612C86.3223 6.75746 86.5676 7.30146 86.5676 8.04812C86.5676 8.30412 86.5569 8.50679 86.5356 8.65612L86.1196 11.9841H83.0796L83.4956 8.72013H71.9756L71.5916 11.9521H68.5836L68.9996 8.62412C69.1063 7.66412 69.3729 6.97079 69.7996 6.54412C70.2476 6.11746 70.9409 5.90413 71.8796 5.90413H83.5916ZM68.6156 13.8721L75.9756 10.8961L75.7516 13.7121L68.3596 16.7521L68.6156 13.8721ZM85.8316 16.7841L78.2796 13.6801L78.5356 10.9601L86.1516 13.9681L85.8316 16.7841ZM60.7116 11.8881L66.1196 15.1201L65.7356 18.4801L60.2636 15.2481L60.7116 11.8881ZM78.4716 14.7041L78.1196 17.8721H85.9276L85.6076 20.7201H78.7596C79.7196 22.6188 80.8076 24.2935 82.0236 25.7441C83.2823 27.2801 84.7649 28.7521 86.4716 30.1601L83.6236 31.4401C81.2343 29.3068 79.1863 26.6615 77.4796 23.5041L76.4556 32.5601H73.5436L74.5036 23.8881C72.2636 27.0028 69.7996 29.4561 67.1116 31.2481L64.3596 29.8721C68.1356 27.3975 71.2396 24.3468 73.6716 20.7201H67.6236L67.9436 17.8721H75.1756L75.5276 14.7041H78.4716ZM66.2796 20.8801C64.6796 25.4455 63.2289 29.1575 61.9276 32.0161H58.5996C60.5623 27.4721 62.0556 23.7601 63.0796 20.8801H66.2796Z" fill="white"/>
<path fill-rule="evenodd" clip-rule="evenodd" d="M28.0954 0C26.706 0 25.518 0.999518 25.2804 2.36845L24.6179 6.18441C24.52 6.66245 24.0529 8.65382 22.8794 9.75518C21.8654 10.7068 20.5158 10.8739 19.9189 10.8989H12.6876C11.2981 10.8989 10.1102 11.8985 9.87251 13.2674L8.82707 19.2895C8.59958 20.5999 9.60834 21.7989 10.9383 21.7989H21.9087L23.0208 15.3931C23.1777 14.7142 23.6615 12.9983 24.7193 12.0056C25.5276 11.247 26.5493 10.9869 27.2328 10.8999H39.9376C41.327 10.8999 42.515 9.90042 42.7526 8.53148L43.7981 2.50938C44.0256 1.19897 43.0168 0 41.6868 0H28.0954Z" fill="#0063AB"/>
<path fill-rule="evenodd" clip-rule="evenodd" d="M33.8147 16.2012H22.8443L21.6949 22.8224C21.5068 23.5661 21.0196 25.0991 20.0321 26.0116C19.2248 26.7578 18.2046 27.0142 17.5211 27.1001H4.81646C3.42705 27.1001 2.23907 28.0996 2.00142 29.4686L0.955976 35.4907C0.728488 36.8011 1.73725 38 3.06726 38H16.6586C18.048 38 19.236 37.0005 19.4736 35.6316L20.2027 31.4319C20.3841 30.7024 20.871 29.1344 21.8744 28.2071C22.7465 27.4011 23.867 27.1666 24.5432 27.1011H32.0655C33.4549 27.1011 34.6429 26.1016 34.8805 24.7327L35.926 18.7105C36.1535 17.4001 35.1447 16.2012 33.8147 16.2012Z" fill="#009757"/>
</svg>
