<svg width="160" height="130" viewBox="0 0 160 130" fill="none" xmlns="http://www.w3.org/2000/svg">
<path opacity="0.4" d="M0.5 0.5H159.5V129.5H0.5V0.5Z" stroke="white"/>
<path d="M58 45L58 51" stroke="white" stroke-width="3" stroke-linecap="round" stroke-linejoin="round"/>
<path d="M59 46.5H57.5V49.5H59V46.5ZM59 49.5H62V46.5H59V49.5Z" fill="white"/>
<path d="M72 53H88" stroke="white" stroke-width="3" stroke-linecap="round" stroke-linejoin="round"/>
<path d="M102 45L102 51" stroke="white" stroke-width="3" stroke-linecap="round" stroke-linejoin="round"/>
<path d="M100 46.5H101.5V49.5H100V46.5ZM100 49.5H97V46.5H100V49.5Z" fill="white"/>
<rect x="63" y="31" width="34" height="34" rx="8" stroke="white" stroke-width="3"/>
<circle cx="74" cy="44" r="2" fill="white"/>
<circle cx="86" cy="44" r="2" fill="white"/>
<path d="M53.6 93.94C53.3867 93.94 53.22 93.9 53.1 93.82C52.98 93.7267 52.92 93.6067 52.92 93.46C52.92 93.3533 52.9667 93.2067 53.06 93.02L53.9 91.36H55.84L55.38 92.38H60.64L60.4 93.94H58.04C57.9733 94.3267 57.86 94.7867 57.7 95.32H60.68L60.48 96.9H57.16C58.24 97.4733 59.3333 98.1733 60.44 99L59.16 100.12C58.3467 99.52 57.8267 99.1267 57.6 98.94C57.1333 98.6067 56.7 98.3133 56.3 98.06C55.4733 99.1533 54.3933 100.093 53.06 100.88L51.54 99.76C52.3533 99.3067 53.04 98.8533 53.6 98.4C54.16 97.9467 54.6267 97.4467 55 96.9H52.08L52.28 95.32H55.82C55.9933 94.8667 56.12 94.4067 56.2 93.94H53.6ZM67.66 99.54H60.72L61.46 93.58C61.5133 93.1533 61.6733 92.82 61.94 92.58C62.2067 92.34 62.5533 92.22 62.98 92.22H67.02C67.46 92.22 67.8133 92.3733 68.08 92.68C68.3467 92.9733 68.4467 93.3267 68.38 93.74L67.66 99.54ZM62.74 97.94H66.04L66.48 93.82H63.24L62.74 97.94ZM65.64 108.38H53.08L53.94 101.74C53.9933 101.34 54.1667 101.013 54.46 100.76C54.7667 100.507 55.1333 100.38 55.56 100.38H64.96C65.4 100.38 65.7467 100.493 66 100.72C66.2533 100.947 66.38 101.26 66.38 101.66C66.38 101.793 66.3733 101.893 66.36 101.96L65.64 108.38ZM64.42 102.06H55.8L55.6 103.58H64.24L64.42 102.06ZM55.22 106.7H63.9L64.06 105.18H55.4L55.22 106.7ZM78.74 96.26C77.3533 96.5 75.6 96.7 73.48 96.86C73.16 96.8867 72.88 96.8467 72.64 96.74C72.4 96.6333 72.2333 96.4867 72.14 96.3C72.0733 96.1667 72.04 96.0333 72.04 95.9C72.04 95.6067 72.1867 95.2933 72.48 94.96C73.2 94.1467 74.12 92.9267 75.24 91.3H77.46C77.0067 92.02 76.5133 92.74 75.98 93.46C75.58 93.9933 75.1333 94.5333 74.64 95.08C76.0267 94.9867 77.26 94.8333 78.34 94.62L77.9 92.68H79.62L80.74 97.2H78.96L78.74 96.26ZM88.14 94.2C87.0067 94.6133 85.3933 95.0067 83.3 95.38L83.18 96.56C83.1667 96.6 83.16 96.6533 83.16 96.72C83.16 96.9733 83.3333 97.1 83.68 97.1H84.98C86.2467 97.1 87.42 96.8333 88.5 96.3L88.24 98.28C87.3733 98.6667 86.2067 98.86 84.74 98.86H82.86C82.3 98.86 81.8867 98.7467 81.62 98.52C81.3667 98.28 81.24 97.9333 81.24 97.48C81.24 97.3333 81.2467 97.2133 81.26 97.12L81.86 91.34H83.72L83.48 93.68C84.7067 93.44 86.3267 93.0067 88.34 92.38L88.14 94.2ZM77.5 104.98H73.6L73.24 108.42H71.46L72.4 99.26C72.4667 98.6733 72.6267 98.2533 72.88 98C73.1467 97.7467 73.56 97.62 74.12 97.62H78.38C79.3533 97.62 79.84 98.06 79.84 98.94C79.84 99.1 79.8333 99.22 79.82 99.3L79.16 106.7C79.08 107.34 78.9067 107.793 78.64 108.06C78.3867 108.327 77.98 108.46 77.42 108.46C77.0467 108.46 76.64 108.427 76.2 108.36C75.76 108.307 75.4267 108.233 75.2 108.14L75.34 106.44C76.06 106.627 76.5933 106.72 76.94 106.72C77.1 106.72 77.2067 106.687 77.26 106.62C77.3267 106.553 77.3733 106.407 77.4 106.18L77.5 104.98ZM78 99.3H74.2L74.06 100.54H77.88L78 99.3ZM87.42 102.84C86.82 103.053 86.06 103.267 85.14 103.48C84.0867 103.72 83.2067 103.9 82.5 104.02L82.28 106C82.2133 106.347 82.3733 106.52 82.76 106.52H84.1C84.6867 106.52 85.3067 106.453 85.96 106.32C86.6267 106.173 87.2267 105.967 87.76 105.7L87.5 107.7C87.06 107.887 86.5133 108.033 85.86 108.14C85.2067 108.247 84.54 108.3 83.86 108.3H81.96C81.4 108.3 80.9867 108.18 80.72 107.94C80.4667 107.713 80.34 107.373 80.34 106.92C80.34 106.76 80.3467 106.633 80.36 106.54L81.12 99.58H82.98L82.68 102.24C84.5067 101.88 86.1533 101.467 87.62 101L87.42 102.84ZM77.74 102.14H73.9L73.76 103.38H77.64L77.74 102.14ZM99.24 91.32L98.96 91.76C98.4533 92.6 98.18 93.0467 98.14 93.1L97.08 94.78L95.46 108.26H93.48L94.7 98.32L94.12 99.12C93.8533 99.4667 93.66 99.7267 93.54 99.9H91.06C93.18 97.3 95.1267 94.44 96.9 91.32H99.24ZM107.88 96.32C106.24 97.56 104.393 98.68 102.34 99.68L101.6 105.8C101.587 105.853 101.58 105.913 101.58 105.98C101.58 106.073 101.607 106.133 101.66 106.16C101.713 106.187 101.807 106.2 101.94 106.2H103.74C105.287 106.2 106.747 105.813 108.12 105.04L107.9 107.16C107.34 107.467 106.707 107.693 106 107.84C105.307 107.987 104.48 108.06 103.52 108.06H101.18C100.58 108.06 100.14 107.9 99.86 107.58C99.58 107.273 99.4667 106.833 99.52 106.26L100.18 100.66C98.9533 101.14 97.9667 101.5 97.22 101.74L97.46 99.7L97.9 99.54C99.0467 99.1133 99.8933 98.78 100.44 98.54L101.3 91.36H103.36L102.62 97.48C104.327 96.5733 106.18 95.3933 108.18 93.94L107.88 96.32Z" fill="white"/>
</svg>
